<svg width="17" height="14" viewBox="0 0 17 14" fill="none" xmlns="http://www.w3.org/2000/svg">
<path d="M15.9995 6H3.4135L7.7065 1.707C8.0965 1.317 8.0965 0.684001 7.7065 0.293001C7.3165 -0.097999 6.6835 -0.096999 6.2925 0.293001L0.2925 6.293C-0.0975 6.683 -0.0975 7.316 0.2925 7.707L6.2925 13.707C6.4875 13.902 6.7425 14 6.9995 14C7.2565 14 7.5115 13.902 7.7065 13.707C8.0965 13.317 8.0965 12.684 7.7065 12.293L3.4135 8H15.9995C16.5525 8 16.9995 7.553 16.9995 7C16.9995 6.447 16.5525 6 15.9995 6Z" fill="#1DA1F2"/>
</svg>
