<svg width="18" height="21" viewBox="0 0 18 21" fill="none" xmlns="http://www.w3.org/2000/svg">
<path fill-rule="evenodd" clip-rule="evenodd" d="M16.458 20.356C16.588 20.45 16.743 20.5 16.9 20.5H16.898C17.015 20.5 17.132 20.473 17.238 20.418C17.49 20.29 17.648 20.032 17.648 19.75V2.60001C17.648 1.36001 16.638 0.350006 15.398 0.350006H2.6C1.36 0.350006 0.35 1.36001 0.35 2.60001V19.751C0.35 20.033 0.51 20.291 0.76 20.418C1.012 20.548 1.314 20.522 1.542 20.358L9 14.928L16.458 20.356ZM9.44 13.394C9.31 13.298 9.155 13.25 9 13.25C8.845 13.25 8.69 13.298 8.56 13.394L1.85 18.277V2.60001C1.85 2.18801 2.187 1.85001 2.6 1.85001H15.4C15.813 1.85001 16.15 2.18801 16.15 2.60001V18.277L9.44 13.394Z" fill="#14171A"/>
</svg>
