<svg width="16" height="16" viewBox="0 0 16 16" fill="none" xmlns="http://www.w3.org/2000/svg">
<path fill-rule="evenodd" clip-rule="evenodd" d="M1.8336 0H14.1664C15.1776 0 16 0.8224 16 1.8336V14.1664C16 15.1776 15.1776 16 14.1664 16H1.8336C0.8224 16 0 15.1776 0 14.1664V1.8336C0 0.8224 0.8224 0 1.8336 0ZM14.1664 14.8C14.516 14.8 14.8 14.516 14.8 14.1664V3.5328C14.8 3.1848 14.5168 2.9008 14.168 2.9008H1.832C1.4832 2.9024 1.2 3.1848 1.2 3.5344V14.1664C1.2 14.516 1.484 14.8 1.8336 14.8H14.1664Z" fill="#657786"/>
<path d="M4 6C4.55228 6 5 5.55228 5 5C5 4.44772 4.55228 4 4 4C3.44772 4 3 4.44772 3 5C3 5.55228 3.44772 6 4 6Z" fill="#657786"/>
<path d="M4 10C4.55228 10 5 9.55228 5 9C5 8.44772 4.55228 8 4 8C3.44772 8 3 8.44772 3 9C3 9.55228 3.44772 10 4 10Z" fill="#657786"/>
<path d="M12 6C12.5523 6 13 5.55228 13 5C13 4.44772 12.5523 4 12 4C11.4477 4 11 4.44772 11 5C11 5.55228 11.4477 6 12 6Z" fill="#657786"/>
<path d="M12 10C12.5523 10 13 9.55228 13 9C13 8.44772 12.5523 8 12 8C11.4477 8 11 8.44772 11 9C11 9.55228 11.4477 10 12 10Z" fill="#657786"/>
<path d="M8 6C8.55228 6 9 5.55228 9 5C9 4.44772 8.55228 4 8 4C7.44772 4 7 4.44772 7 5C7 5.55228 7.44772 6 8 6Z" fill="#657786"/>
<path d="M8 10C8.55228 10 9 9.55228 9 9C9 8.44772 8.55228 8 8 8C7.44772 8 7 8.44772 7 9C7 9.55228 7.44772 10 8 10Z" fill="#657786"/>
<path d="M4 13C4.55228 13 5 12.5523 5 12C5 11.4477 4.55228 11 4 11C3.44772 11 3 11.4477 3 12C3 12.5523 3.44772 13 4 13Z" fill="#657786"/>
<path d="M8 13C8.55228 13 9 12.5523 9 12C9 11.4477 8.55228 11 8 11C7.44772 11 7 11.4477 7 12C7 12.5523 7.44772 13 8 13Z" fill="#657786"/>
</svg>
