<svg width="14" height="15" viewBox="0 0 14 15" fill="none" xmlns="http://www.w3.org/2000/svg">
<path fill-rule="evenodd" clip-rule="evenodd" d="M5.53053 0.5L8.47089 0.507089V0.50638C11.5686 0.507089 13.9957 2.93139 14 6.02699V6.03904C13.9979 7.69919 13.1912 9.3721 11.8429 10.5134C10.6981 11.4817 6.29681 14.2973 6.10967 14.4164C6.02106 14.4731 5.92253 14.5 5.82471 14.5C5.64891 14.5 5.47737 14.4135 5.37671 14.254C5.32284 14.1711 5.29165 14.0449 5.29165 13.9684V11.2548C2.25843 11.1386 0 8.93544 0 6.03053C0 2.92927 2.42856 0.5 5.52911 0.5H5.53053ZM6.35494 12.9937C7.70886 12.1161 10.3515 10.3829 11.1553 9.70243H11.1561C12.2704 8.75823 12.936 7.38729 12.9381 6.03337C12.9367 3.53109 10.9746 1.57038 8.47089 1.57038H8.46947L5.52982 1.56329C3.02613 1.56329 1.064 3.52542 1.064 6.03053C1.064 8.44775 2.94815 10.2029 5.54258 10.2029H5.82329C6.11747 10.2029 6.35494 10.4411 6.35494 10.7345V12.9937Z" fill="#6E7F8D"/>
</svg>
