<svg width="20" height="20" viewBox="0 0 20 20" fill="none" xmlns="http://www.w3.org/2000/svg">
<path fill-rule="evenodd" clip-rule="evenodd" d="M15.2 5.21673H19.2308C19.6554 5.21673 20 5.56136 20 5.986C20 6.41063 19.6554 6.75526 19.2308 6.75526H15.0667L14.5026 13.2448H18.4287C18.8523 13.2448 19.1979 13.5905 19.1979 14.0141C19.1979 14.4377 18.8523 14.7833 18.4287 14.7833H14.3703L13.9785 19.2964C13.9436 19.6974 13.6082 20 13.2133 20L13.1456 19.9969C12.7231 19.959 12.4092 19.5866 12.4462 19.163L12.8256 14.7833H6.34359L5.95077 19.2964C5.9159 19.6974 5.58051 20 5.18564 20L5.11795 19.9969C4.69538 19.959 4.38154 19.5866 4.41846 19.1641L4.8 14.7823H0.769231C0.344615 14.7823 0 14.4377 0 14.013C0 13.5884 0.344615 13.2438 0.769231 13.2438H4.93333L5.49744 6.75424H1.57128C1.14667 6.75424 0.802051 6.40858 0.802051 5.98497C0.802051 5.56136 1.14667 5.2157 1.57128 5.2157H5.63077L6.02256 0.702666C6.05949 0.279056 6.42564 -0.0286513 6.85641 0.00211939C7.27692 0.0400699 7.59179 0.412395 7.55385 0.836005L7.17436 5.2157H13.6564L14.0492 0.702666C14.0862 0.279056 14.4544 -0.0286513 14.8821 0.00211939C15.3046 0.0400699 15.6185 0.412395 15.5815 0.83498L15.2 5.21673ZM6.47692 13.2438H12.959L13.5231 6.75526H7.04103L6.47692 13.2438Z" fill="#14171A"/>
</svg>
