<svg width="16" height="15" viewBox="0 0 16 15" fill="none" xmlns="http://www.w3.org/2000/svg">
<path fill-rule="evenodd" clip-rule="evenodd" d="M7.98965 14.5H8.0008V14.4985H8.00955C10.0659 14.4637 16 9.47927 16 4.75981C16 2.49112 13.9906 0.5 11.6979 0.5C9.87402 0.5 8.64802 1.67098 8 2.52073C7.35038 1.6695 6.12439 0.5 4.30132 0.5C2.01015 0.5 0 2.49112 0 4.75907C0 9.48001 5.93333 14.4645 7.98965 14.5ZM1.19494 4.76055C1.19494 3.08253 2.64623 1.61103 4.30212 1.61103H4.30292C6.31625 1.61103 7.43955 3.78349 7.45069 3.8057C7.63459 4.22169 8.37178 4.22169 8.55488 3.8057C8.56443 3.78423 9.68853 1.61103 11.7011 1.61103C13.357 1.61103 14.8082 3.08253 14.8082 4.76055C14.8082 9.00999 9.21007 13.3438 8.00159 13.3897C6.79471 13.3438 1.19494 9.00925 1.19494 4.76055Z" fill="#6E7F8D"/>
</svg>
