<svg width="22" height="22" viewBox="0 0 22 22" fill="none" xmlns="http://www.w3.org/2000/svg">
<path fill-rule="evenodd" clip-rule="evenodd" d="M2.475 22H19.525C20.889 22 22 20.889 22 19.525V2.475C22 1.111 20.889 0 19.525 0H2.475C1.111 0 0 1.111 0 2.475V19.525C0 20.889 1.111 22 2.475 22ZM1.65 2.475C1.65 2.0207 2.0196 1.65 2.475 1.65H19.525C19.9804 1.65 20.35 2.0207 20.35 2.475V19.525C20.35 19.9793 19.9804 20.35 19.525 20.35H2.475C2.0196 20.35 1.65 19.9793 1.65 19.525V2.475Z" fill="#14171A"/>
<path fill-rule="evenodd" clip-rule="evenodd" d="M17.1522 7.69753H5.84783C5.37983 7.69753 5 7.31615 5 6.84877C5 6.38138 5.37983 6 5.84783 6H17.1522C17.6202 6 18 6.37912 18 6.84877C18 7.31842 17.6202 7.69753 17.1522 7.69753ZM17.1522 12.3488H5.84783C5.37983 12.3488 5 11.9685 5 11.5C5 11.0315 5.37983 10.6512 5.84783 10.6512H17.1522C17.6202 10.6512 18 11.0315 18 11.5C18 11.9685 17.6202 12.3488 17.1522 12.3488ZM5.84783 17H11.5C11.968 17 12.3478 16.6186 12.3478 16.1512C12.3478 15.6838 11.968 15.3025 11.5 15.3025H5.84783C5.37983 15.3025 5 15.6816 5 16.1512C5 16.6209 5.37983 17 5.84783 17Z" fill="#14171A"/>
</svg>
