<svg width="20" height="18" viewBox="0 0 20 18" fill="none" xmlns="http://www.w3.org/2000/svg">
<path fill-rule="evenodd" clip-rule="evenodd" d="M17.25 0H2.75C1.233 0 0 1.234 0 2.752V15.247C0 16.765 1.233 18 2.75 18H17.25C18.767 18 20 16.765 20 15.247V2.752C20 1.234 18.767 0 17.25 0ZM2.75 1.5H17.25C17.94 1.5 18.5 2.06 18.5 2.75V3.464L10.45 8.831C10.177 9.011 9.824 9.013 9.55 8.829L1.5 3.464V2.75C1.5 2.06 2.06 1.5 2.75 1.5ZM1.5 15.248C1.5 15.938 2.06 16.498 2.75 16.498H17.25V16.495C17.94 16.495 18.5 15.935 18.5 15.245V5.223L11.26 10.053C10.877 10.308 10.44 10.436 10 10.436C9.562 10.436 9.123 10.308 8.74 10.052L1.5 5.222V15.248Z" fill="#14171A"/>
</svg>
