<svg width="23" height="23" viewBox="0 0 23 23" fill="none" xmlns="http://www.w3.org/2000/svg">
<path fill-rule="evenodd" clip-rule="evenodd" d="M6.5 9.25C5.535 9.25 4.75 10.037 4.75 11C4.75 11.963 5.535 12.75 6.5 12.75C7.464 12.75 8.25 11.964 8.25 11C8.25 10.036 7.463 9.25 6.5 9.25ZM11 9.25C10.034 9.25 9.25 10.037 9.25 11C9.25 11.963 10.035 12.75 11 12.75C11.965 12.75 12.75 11.964 12.75 11C12.75 10.036 11.966 9.25 11 9.25ZM13.75 11C13.75 10.037 14.535 9.25 15.5 9.25C16.464 9.25 17.25 10.036 17.25 11C17.25 11.964 16.464 12.75 15.5 12.75C14.534 12.75 13.75 11.963 13.75 11ZM14.75 11C14.75 11.414 15.086 11.75 15.5 11.75C15.914 11.75 16.25 11.413 16.25 11C16.25 10.586 15.913 10.25 15.5 10.25C15.087 10.25 14.75 10.587 14.75 11ZM10.25 11C10.25 11.414 10.586 11.75 11 11.75C11.414 11.75 11.75 11.413 11.75 11C11.75 10.586 11.413 10.25 11 10.25C10.587 10.25 10.25 10.587 10.25 11ZM5.75 11C5.75 11.414 6.086 11.75 6.5 11.75C6.914 11.75 7.25 11.413 7.25 11C7.25 10.586 6.913 10.25 6.5 10.25C6.087 10.25 5.75 10.587 5.75 11Z" fill="#14171A"/>
<path fill-rule="evenodd" clip-rule="evenodd" d="M0.25 11C0.25 16.928 5.072 21.75 11 21.75C16.928 21.75 21.75 16.928 21.75 11C21.75 5.072 16.928 0.25 11 0.25C5.072 0.25 0.25 5.072 0.25 11ZM1.75 11C1.75 5.9 5.9 1.75 11 1.75C16.1 1.75 20.25 5.9 20.25 11C20.25 16.1 16.1 20.25 11 20.25C5.9 20.25 1.75 16.1 1.75 11Z" fill="#14171A"/>
</svg>
