<svg width="16" height="21" viewBox="0 0 16 21" fill="none" xmlns="http://www.w3.org/2000/svg">
<path fill-rule="evenodd" clip-rule="evenodd" d="M4.13452 8.905C5.10252 10.011 6.61852 10.161 7.97452 10.161L7.97552 10.16C9.33052 10.16 10.8455 10.011 11.8155 8.905C12.6295 7.973 12.8935 6.537 12.6215 4.513C12.2425 1.687 10.5055 0 7.97552 0C5.44552 0 3.70952 1.687 3.32952 4.513C3.05752 6.537 3.32052 7.975 4.13452 8.905ZM0.475522 19.225C0.875522 19.731 1.46252 20.011 2.12552 20.011H13.8235V20.009C14.4865 20.009 15.0715 19.729 15.4715 19.224C15.8935 18.691 16.0475 17.955 15.8835 17.257C15.0475 13.726 11.7955 11.26 7.97352 11.26C4.15152 11.26 0.899522 13.727 0.0655217 17.257C-0.100478 17.955 0.0535217 18.691 0.475522 19.225Z" fill="#1DA1F2"/>
</svg>
