<svg width="19" height="14" viewBox="0 0 19 14" fill="none" xmlns="http://www.w3.org/2000/svg">
<path fill-rule="evenodd" clip-rule="evenodd" d="M5.74342 12.3218H10.3787H10.3803C10.7076 12.3218 10.9746 12.5857 10.9746 12.9109C10.9746 13.2361 10.7083 13.5 10.3803 13.5H5.74501C4.1072 13.5 2.77366 12.1788 2.77366 10.5545V2.51121L1.01462 4.25496C0.782456 4.48511 0.407669 4.48511 0.174715 4.25496C-0.0582385 4.02482 -0.0582385 3.65172 0.174715 3.42236L2.94798 0.673197C3.17934 0.442268 3.55572 0.442268 3.78788 0.673197L6.56114 3.42236C6.7933 3.65172 6.7933 4.02482 6.56114 4.25496C6.44545 4.37043 6.29332 4.42777 6.14119 4.42777C5.98905 4.42777 5.83692 4.37043 5.71965 4.25496L3.96061 2.51121V10.5545C3.96061 11.5285 4.7609 12.3218 5.74342 12.3218ZM17.9854 9.74543C18.2175 9.51529 18.5939 9.51529 18.8253 9.74543C19.0582 9.97557 19.0582 10.3487 18.8253 10.578L16.052 13.3272C15.9355 13.4434 15.785 13.5 15.6321 13.5C15.4791 13.5 15.327 13.4427 15.2121 13.3272L12.4389 10.578C12.2059 10.3487 12.2075 9.97557 12.4389 9.74543C12.6702 9.51529 13.0466 9.51529 13.2788 9.74543L15.0378 11.4892V3.44592C15.0378 2.47193 14.2375 1.6786 13.255 1.6786H8.61969C8.29165 1.6786 8.02542 1.41469 8.02542 1.0895C8.02542 0.764312 8.29165 0.500393 8.61969 0.500393H13.255C14.8928 0.500393 16.2263 1.82156 16.2263 3.44592V11.4892L17.9854 9.74543Z" fill="#6E7F8D"/>
</svg>
