<svg width="16" height="17" viewBox="0 0 16 17" fill="none" xmlns="http://www.w3.org/2000/svg">
<path d="M11.828 4.75321L7.91507 0.679059C7.68577 0.440314 7.31404 0.440314 7.08552 0.679059L3.17256 4.75321C2.94248 4.99195 2.94248 5.379 3.17256 5.61693C3.40264 5.85486 3.77281 5.85649 4.00211 5.61693L6.91335 2.58576V10.8889C6.91335 11.2262 7.1763 11.5 7.50029 11.5C7.82429 11.5 8.08724 11.2262 8.08724 10.8889V2.58576L10.9985 5.61693C11.1127 5.73671 11.263 5.79619 11.4133 5.79619C11.5635 5.79619 11.7138 5.73752 11.828 5.61693C12.0573 5.37818 12.0573 4.99195 11.828 4.75321Z" fill="#6E7F8D"/>
<path d="M14.1664 16.5H1.8336C0.8224 16.5 0 15.6723 0 14.6546V10.1039C0 9.77053 0.2688 9.5 0.6 9.5C0.9312 9.5 1.2 9.77053 1.2 10.1039V14.6546C1.2 15.0064 1.484 15.2923 1.8336 15.2923H14.1664C14.516 15.2923 14.8 15.0064 14.8 14.6546V10.1039C14.8 9.77053 15.0688 9.5 15.4 9.5C15.7312 9.5 16 9.77053 16 10.1039V14.6546C16 15.6723 15.1776 16.5 14.1664 16.5Z" fill="#6E7F8D"/>
</svg>
