<svg width="9" height="16" viewBox="0 0 9 16" fill="none" xmlns="http://www.w3.org/2000/svg">
<path fill-rule="evenodd" clip-rule="evenodd" d="M4.5 15.5C4.1837 15.5 3.92699 15.248 3.92699 14.9375V1.0625C3.92699 0.752 4.1837 0.5 4.5 0.5C4.8163 0.5 5.073 0.752 5.073 1.0625V14.9375C5.073 15.248 4.8163 15.5 4.5 15.5ZM8.42699 15.5C8.10993 15.5 7.85399 15.248 7.85399 14.9375V4.9175C7.85399 4.60625 8.10993 4.355 8.42699 4.355C8.74406 4.355 9 4.60625 9 4.9175V14.9375C9 15.248 8.74253 15.5 8.42699 15.5ZM0 14.9375C0 15.248 0.25747 15.5 0.573005 15.5C0.890068 15.5 1.14601 15.248 1.14601 14.9375V7.22975C1.14601 6.91925 0.88854 6.66725 0.573005 6.66725C0.25747 6.66725 0 6.91925 0 7.22975V14.9375Z" fill="#6E7F8D"/>
</svg>
